<svg width="47" height="47" viewBox="0 0 47 47" fill="none" xmlns="http://www.w3.org/2000/svg">
<path d="M23.4998 43.0837C34.3154 43.0837 43.0832 34.3159 43.0832 23.5003C43.0832 12.6847 34.3154 3.91699 23.4998 3.91699C12.6843 3.91699 3.9165 12.6847 3.9165 23.5003C3.9165 34.3159 12.6843 43.0837 23.4998 43.0837Z" stroke="white" stroke-width="2" stroke-linecap="round" stroke-linejoin="round"/>
<path d="M23.4998 31.3337C27.8261 31.3337 31.3332 27.8266 31.3332 23.5003C31.3332 19.1741 27.8261 15.667 23.4998 15.667C19.1736 15.667 15.6665 19.1741 15.6665 23.5003C15.6665 27.8266 19.1736 31.3337 23.4998 31.3337Z" stroke="white" stroke-width="2" stroke-linecap="round" stroke-linejoin="round"/>
<path d="M9.65479 9.6543L17.9581 17.9576" stroke="white" stroke-width="2" stroke-linecap="round" stroke-linejoin="round"/>
<path d="M29.042 29.042L37.3453 37.3453" stroke="white" stroke-width="2" stroke-linecap="round" stroke-linejoin="round"/>
<path d="M29.042 17.9576L37.3453 9.6543" stroke="white" stroke-width="2" stroke-linecap="round" stroke-linejoin="round"/>
<path d="M29.042 17.9578L35.9549 11.0449" stroke="white" stroke-width="2" stroke-linecap="round" stroke-linejoin="round"/>
<path d="M9.65479 37.3453L17.9581 29.042" stroke="white" stroke-width="2" stroke-linecap="round" stroke-linejoin="round"/>
</svg>
