<svg width="46" height="46" viewBox="0 0 46 46" fill="none" xmlns="http://www.w3.org/2000/svg">
<path d="M23 28.75C26.1756 28.75 28.75 26.1756 28.75 23C28.75 19.8244 26.1756 17.25 23 17.25C19.8244 17.25 17.25 19.8244 17.25 23C17.25 26.1756 19.8244 28.75 23 28.75Z" stroke="white" stroke-width="2" stroke-linecap="round" stroke-linejoin="round"/>
<path d="M37.1834 28.7503C36.9283 29.3284 36.8522 29.9697 36.9649 30.5915C37.0776 31.2132 37.374 31.7869 37.8159 32.2387L37.9309 32.3537C38.2873 32.7097 38.5701 33.1324 38.763 33.5978C38.9559 34.0632 39.0552 34.562 39.0552 35.0657C39.0552 35.5695 38.9559 36.0683 38.763 36.5337C38.5701 36.999 38.2873 37.4218 37.9309 37.7778C37.5749 38.1342 37.1521 38.417 36.6868 38.6099C36.2214 38.8028 35.7226 38.9021 35.2188 38.9021C34.7151 38.9021 34.2163 38.8028 33.7509 38.6099C33.2855 38.417 32.8628 38.1342 32.5067 37.7778L32.3917 37.6628C31.94 37.221 31.3663 36.9246 30.7445 36.8118C30.1228 36.6991 29.4815 36.7752 28.9034 37.0303C28.3365 37.2733 27.853 37.6767 27.5125 38.1909C27.172 38.7052 26.9892 39.3077 26.9867 39.9245V40.2503C26.9867 41.267 26.5829 42.242 25.864 42.9609C25.1451 43.6798 24.1701 44.0837 23.1534 44.0837C22.1367 44.0837 21.1617 43.6798 20.4428 42.9609C19.7239 42.242 19.3201 41.267 19.3201 40.2503V40.0778C19.3052 39.4434 19.0999 38.8281 18.7307 38.312C18.3616 37.7959 17.8457 37.4027 17.2501 37.1837C16.672 36.9285 16.0307 36.8524 15.409 36.9651C14.7872 37.0779 14.2135 37.3743 13.7617 37.8162L13.6467 37.9312C13.2907 38.2876 12.868 38.5703 12.4026 38.7632C11.9372 38.9561 11.4384 39.0554 10.9347 39.0554C10.4309 39.0554 9.93209 38.9561 9.46673 38.7632C9.00137 38.5703 8.57859 38.2876 8.22258 37.9312C7.86617 37.5751 7.58343 37.1524 7.39052 36.687C7.19761 36.2217 7.09832 35.7228 7.09832 35.2191C7.09832 34.7153 7.19761 34.2165 7.39052 33.7511C7.58343 33.2858 7.86617 32.863 8.22258 32.507L8.33758 32.392C8.77944 31.9403 9.07585 31.3665 9.18859 30.7448C9.30133 30.123 9.22522 29.4818 8.97008 28.9037C8.72712 28.3368 8.3237 27.8533 7.80947 27.5127C7.29525 27.1722 6.69267 26.9894 6.07591 26.987H5.75008C4.73342 26.987 3.75839 26.5831 3.03951 25.8642C2.32062 25.1453 1.91675 24.1703 1.91675 23.1537C1.91675 22.137 2.32062 21.162 3.03951 20.4431C3.75839 19.7242 4.73342 19.3203 5.75008 19.3203H5.92258C6.55699 19.3055 7.17226 19.1001 7.6884 18.731C8.20455 18.3618 8.5977 17.8459 8.81675 17.2503C9.07188 16.6722 9.14799 16.031 9.03526 15.4092C8.92252 14.7874 8.62611 14.2137 8.18425 13.762L8.06925 13.647C7.71284 13.291 7.4301 12.8682 7.23719 12.4028C7.04428 11.9375 6.94498 11.4387 6.94498 10.9349C6.94498 10.4311 7.04428 9.93233 7.23719 9.46697C7.4301 9.00161 7.71284 8.57884 8.06925 8.22282C8.42526 7.86642 8.84803 7.58367 9.31339 7.39076C9.77875 7.19785 10.2776 7.09856 10.7813 7.09856C11.2851 7.09856 11.7839 7.19785 12.2493 7.39076C12.7146 7.58367 13.1374 7.86642 13.4934 8.22282L13.6084 8.33782C14.0601 8.77969 14.6339 9.0761 15.2556 9.18883C15.8774 9.30157 16.5186 9.22546 17.0967 8.97032H17.2501C17.817 8.72736 18.3004 8.32394 18.641 7.80972C18.9815 7.29549 19.1643 6.69292 19.1667 6.07616V5.75033C19.1667 4.73366 19.5706 3.75864 20.2895 3.03975C21.0084 2.32086 21.9834 1.91699 23.0001 1.91699C24.0167 1.91699 24.9918 2.32086 25.7107 3.03975C26.4295 3.75864 26.8334 4.73366 26.8334 5.75033V5.92283C26.8359 6.53958 27.0186 7.14216 27.3592 7.65638C27.6997 8.17061 28.1832 8.57403 28.7501 8.81699C29.3282 9.07213 29.9694 9.14824 30.5912 9.0355C31.213 8.92276 31.7867 8.62635 32.2384 8.18449L32.3534 8.06949C32.7094 7.71308 33.1322 7.43034 33.5976 7.23743C34.0629 7.04452 34.5617 6.94523 35.0655 6.94523C35.5693 6.94523 36.0681 7.04452 36.5334 7.23743C36.9988 7.43034 37.4216 7.71308 37.7776 8.06949C38.134 8.42551 38.4167 8.84828 38.6096 9.31364C38.8026 9.779 38.9018 10.2778 38.9018 10.7816C38.9018 11.2853 38.8026 11.7842 38.6096 12.2495C38.4167 12.7149 38.134 13.1376 37.7776 13.4937L37.6626 13.6087C37.2207 14.0604 36.9243 14.6341 36.8116 15.2559C36.6988 15.8776 36.7749 16.5189 37.0301 17.097V17.2503C37.273 17.8172 37.6765 18.3007 38.1907 18.6412C38.7049 18.9818 39.3075 19.1645 39.9242 19.167H40.2501C41.2667 19.167 42.2418 19.5709 42.9607 20.2897C43.6795 21.0086 44.0834 21.9837 44.0834 23.0003C44.0834 24.017 43.6795 24.992 42.9607 25.7109C42.2418 26.4298 41.2667 26.8337 40.2501 26.8337H40.0776C39.4608 26.8361 38.8582 27.0189 38.344 27.3594C37.8298 27.7 37.4264 28.1834 37.1834 28.7503V28.7503Z" stroke="white" stroke-width="2" stroke-linecap="round" stroke-linejoin="round"/>
</svg>
