<svg id="Lager_1" data-name="Lager 1" xmlns="http://www.w3.org/2000/svg" viewBox="0 0 137.8 26.36"><defs><style>.cls-1{fill:#fff;}</style></defs><title>UberBus Logo</title><path class="cls-1" d="M16.48,26.54c3,0,5.32-2.35,5.32-5.81V5.85h4.86V30.36H21.83V27.73a8.09,8.09,0,0,1-6.44,3.08c-5.21,0-9.1-3.89-9.1-9.73V5.85h4.87V20.73C11.16,24.41,13.47,26.54,16.48,26.54Z" transform="translate(-6.29 -4.45)"/><path class="cls-1" d="M31.84,4.45h4.69V14A6.47,6.47,0,0,1,42,11.28c4.41,0,7.63,3.36,7.63,8.61V22.2c0,5.25-3.22,8.61-7.63,8.61a6.29,6.29,0,0,1-5.43-2.87v2.42H31.84Zm4.69,17.43c0,3,1.54,4.83,4.24,4.83S45,24.86,45,21.88V20.2c0-2.94-1.51-4.83-4.2-4.83s-4.24,1.89-4.24,4.83Z" transform="translate(-6.29 -4.45)"/><path class="cls-1" d="M52.88,20.13c0-5.32,3.39-8.85,8.5-8.85,4.66,0,7.88,3.6,7.88,8.78v2.49H57.46c.18,2.7,1.75,4.2,4.24,4.2A5.89,5.89,0,0,0,66,24.86l2.83,2.8a9.37,9.37,0,0,1-7.31,3.12c-5.18,0-8.68-3.47-8.68-8.83ZM64.78,19c-.21-2.34-1.54-3.67-3.61-3.67S57.78,16.63,57.5,19Z" transform="translate(-6.29 -4.45)"/><path class="cls-1" d="M82.21,16.18a4.25,4.25,0,0,0-4.27,4.55v9.63H73.25V11.73H77.9v3.64a5.06,5.06,0,0,1,4.94-3.81h1.43v4.62Z" transform="translate(-6.29 -4.45)"/><path class="cls-1" d="M88.37,5.85h8.5c4,0,7,2.8,7,6.34a5.76,5.76,0,0,1-3.6,5.14,6.53,6.53,0,0,1,5.25,6.2,7,7,0,0,1-7.28,6.83H88.37Zm2.8,2.42v8.19h5.56a4.1,4.1,0,1,0,0-8.19Zm11.51,15.08A4.54,4.54,0,0,0,98,18.8H91.17v9.14H98A4.56,4.56,0,0,0,102.68,23.35Z" transform="translate(-6.29 -4.45)"/><path class="cls-1" d="M110.55,11.91h2.7V23.46a4.53,4.53,0,0,0,4.62,4.79,4.85,4.85,0,0,0,5-5V11.91h2.69V30.36h-2.69V26.89a6.15,6.15,0,0,1-5.81,3.82A6.39,6.39,0,0,1,110.55,24Z" transform="translate(-6.29 -4.45)"/><path class="cls-1" d="M130,24.75h2.63c.38,2.11,2.24,3.71,5,3.71,2.27,0,3.78-1.22,3.78-2.83s-1.19-2.42-3.15-3l-3.12-.8c-3.12-.81-4.83-2.49-4.83-5,0-3.15,2.48-5.29,6.2-5.29s6.79,2.38,7.28,5.88h-2.66a4.6,4.6,0,0,0-4.62-3.67c-2.21,0-3.54,1.19-3.54,2.76s1.15,2.38,3,2.87l3,.81c3.26.84,5.08,2.66,5.08,5.14,0,3.19-2.66,5.33-6.44,5.33C133.51,30.71,130.57,28.19,130,24.75Z" transform="translate(-6.29 -4.45)"/></svg>