<svg width="24" height="24" viewBox="0 0 24 24" fill="none" xmlns="http://www.w3.org/2000/svg">
<path d="M0.743875 21.1239L11.5571 2.38091C11.7374 2.04621 12.2265 2.04621 12.4325 2.38091L23.2715 21.1239C23.4517 21.4586 23.22 21.8705 22.8338 21.8705H1.15581C0.769621 21.8705 0.537908 21.4586 0.743875 21.1239Z" fill="#FFE3AC"/>
<path d="M3.75586 19.8882L11.9945 5.625L20.2332 19.8882H3.75586Z" fill="black"/>
<path d="M11.995 16.4382C12.201 16.4382 12.3812 16.5154 12.5357 16.6699C12.6902 16.8243 12.7674 17.0046 12.7674 17.2105C12.7674 17.4165 12.6902 17.5967 12.5357 17.7512C12.3812 17.9057 12.201 17.9829 11.995 17.9829C11.7891 17.9829 11.5831 17.9057 11.4544 17.7512C11.2999 17.5967 11.2227 17.4165 11.2227 17.2105C11.2227 17.0046 11.2999 16.8243 11.4544 16.6699C11.6088 16.5154 11.7891 16.4382 11.995 16.4382ZM11.4029 15.7688L11.2999 10.2334H12.7159L12.5872 15.7688H11.4029Z" fill="white"/>
</svg>
